<svg xmlns="http://www.w3.org/2000/svg" width="1600" height="900" viewBox="0 0 1600 900" role="img" aria-labelledby="title desc">
  <title id="title">Paper-reported robustness gains on unseen degradations</title>
  <desc id="desc">Horizontal bars show PIR-SBFR AP gains over YOLO-DSF for nine degradation conditions excluded from training and model selection.</desc>
  <defs>
    <linearGradient id="robustBg" x1="0" y1="0" x2="1" y2="1">
      <stop offset="0" stop-color="#071526"/>
      <stop offset="1" stop-color="#171632"/>
    </linearGradient>
    <linearGradient id="robustBar" x1="0" y1="0" x2="1" y2="0">
      <stop offset="0" stop-color="#287ccc"/>
      <stop offset="1" stop-color="#24bba9"/>
    </linearGradient>
    <filter id="robustShadow" x="-20%" y="-20%" width="140%" height="140%">
      <feDropShadow dx="0" dy="8" stdDeviation="12" flood-color="#000000" flood-opacity="0.28"/>
    </filter>
  </defs>
  <rect width="1600" height="900" rx="28" fill="url(#robustBg)"/>
  <circle cx="1450" cy="120" r="240" fill="#1cae9f" opacity="0.08"/>
  <text x="70" y="72" fill="#ffffff" font-family="Inter,Segoe UI,Arial,sans-serif" font-size="42" font-weight="700">Robustness beyond the training distribution</text>
  <text x="70" y="111" fill="#9fb5d5" font-family="Inter,Segoe UI,Arial,sans-serif" font-size="20">Paper Table 11: AP gain of PIR-SBFR Full over YOLO-DSF, in percentage points.</text>

  <g filter="url(#robustShadow)">
    <rect x="65" y="145" width="240" height="72" rx="18" fill="#132946" stroke="#31587d" stroke-width="2"/>
    <rect x="325" y="145" width="240" height="72" rx="18" fill="#132946" stroke="#31587d" stroke-width="2"/>
    <rect x="585" y="145" width="300" height="72" rx="18" fill="#123a40" stroke="#2b8f86" stroke-width="2"/>
  </g>
  <g font-family="Inter,Segoe UI,Arial,sans-serif" text-anchor="middle">
    <text x="185" y="174" fill="#8fa7c8" font-size="14">Factorial grid</text><text x="185" y="201" fill="#ffffff" font-size="22" font-weight="700">27 / 27 cells improve</text>
    <text x="445" y="174" fill="#8fa7c8" font-size="14">Grid mean gain</text><text x="445" y="201" fill="#ffffff" font-size="22" font-weight="700">+7.66 pp</text>
    <text x="735" y="174" fill="#82c7c0" font-size="14">Held-out operators</text><text x="735" y="201" fill="#e7fffb" font-size="22" font-weight="700">9 / 9 conditions improve</text>
  </g>
  <text x="1515" y="181" text-anchor="end" fill="#91a7c6" font-family="Inter,Segoe UI,Arial,sans-serif" font-size="15">Excluded from training</text>
  <text x="1515" y="204" text-anchor="end" fill="#91a7c6" font-family="Inter,Segoe UI,Arial,sans-serif" font-size="15">and model selection</text>

  <g stroke="#29415f" stroke-width="1">
    <line x1="430" y1="250" x2="430" y2="770"/>
    <line x1="680" y1="250" x2="680" y2="770"/>
    <line x1="930" y1="250" x2="930" y2="770"/>
    <line x1="1180" y1="250" x2="1180" y2="770"/>
    <line x1="1430" y1="250" x2="1430" y2="770"/>
  </g>
  <g fill="#8197b8" font-family="Inter,Segoe UI,Arial,sans-serif" font-size="15" text-anchor="middle">
    <text x="430" y="795">0</text><text x="680" y="795">2</text><text x="930" y="795">4</text><text x="1180" y="795">6</text><text x="1430" y="795">8</text>
  </g>
  <text x="930" y="833" text-anchor="middle" fill="#9fb5d5" font-family="Inter,Segoe UI,Arial,sans-serif" font-size="17">AP gain over YOLO-DSF (percentage points)</text>

  <g fill="#c9d8eb" font-family="Inter,Segoe UI,Arial,sans-serif" font-size="18" text-anchor="end">
    <text x="405" y="281">Defocus PSF</text>
    <text x="405" y="336">Motion PSF</text>
    <text x="405" y="391">Anisotropic PSF</text>
    <text x="405" y="446">Speckle noise</text>
    <text x="405" y="501">Stripe + read noise</text>
    <text x="405" y="556">Unseen GSD 1.5x</text>
    <text x="405" y="611">Unseen GSD 2.5x</text>
    <text x="405" y="666">Unseen GSD 4x</text>
    <text x="405" y="721">Joint degradation</text>
  </g>
  <g fill="url(#robustBar)">
    <rect x="430" y="255" width="453.8" height="34" rx="7"/>
    <rect x="430" y="310" width="440.0" height="34" rx="7"/>
    <rect x="430" y="365" width="493.8" height="34" rx="7"/>
    <rect x="430" y="420" width="392.5" height="34" rx="7"/>
    <rect x="430" y="475" width="370.0" height="34" rx="7"/>
    <rect x="430" y="530" width="352.5" height="34" rx="7"/>
    <rect x="430" y="585" width="645.0" height="34" rx="7"/>
    <rect x="430" y="640" width="848.8" height="34" rx="7"/>
    <rect x="430" y="695" width="921.3" height="34" rx="7"/>
  </g>
  <g fill="#e6fffb" font-family="Inter,Segoe UI,Arial,sans-serif" font-size="17" font-weight="700">
    <text x="898" y="279">+3.63</text>
    <text x="884" y="334">+3.52</text>
    <text x="938" y="389">+3.95</text>
    <text x="837" y="444">+3.14</text>
    <text x="815" y="499">+2.96</text>
    <text x="798" y="554">+2.82</text>
    <text x="1090" y="609">+5.16</text>
    <text x="1294" y="664">+6.79</text>
    <text x="1367" y="719">+7.37</text>
  </g>
  <g font-family="Inter,Segoe UI,Arial,sans-serif">
    <text x="70" y="850" fill="#7189ad" font-size="15">Mean unseen AP: 46.95 to 51.32 (+4.37 pp). Joint worst case: 29.60 to 36.97 (+7.37 pp).</text>
    <text x="1530" y="850" text-anchor="end" fill="#7189ad" font-size="15">Paper-reported values; see Table 11 and Figure 7.</text>
  </g>
</svg>
